<svg data-v-423bf9ae="" xmlns="http://www.w3.org/2000/svg" viewBox="0 0 765 90" class="iconLeft"><!----><!----><!----><g data-v-423bf9ae="" id="3a32c04f-8068-4823-b785-2faba39b1c72" fill="white" transform="matrix(5.529953722625812,0,0,5.529953722625812,106.73733522346492,-6.622118338013763)"><path d="M4.65 4.54C4.00 4.54 2.84 4.65 2.09 4.68C1.62 4.65 0.69 4.61 0.69 4.61L0.62 5.36L1.69 5.53C1.72 5.73 1.82 6.37 1.82 6.59L1.82 12.63C1.82 12.87 1.72 13.51 1.69 13.69L0.59 13.92L0.66 14.62C0.66 14.62 2.03 14.55 2.31 14.55C3.43 14.55 4.35 14.62 4.35 14.62L4.45 13.79L3.19 13.69C3.16 13.50 3.09 12.80 3.09 12.21L3.09 10.32C3.47 10.33 3.92 10.33 4.33 10.33L4.42 10.33L5.80 12.92C5.98 13.26 6.57 14.55 6.57 14.55C7.69 14.55 8.78 14.62 8.78 14.62L8.88 13.79L7.87 13.69C7.64 13.38 7.31 12.92 7.18 12.71C7.10 12.60 6.38 11.44 5.70 10.12C6.89 9.73 7.74 8.81 7.74 7.43C7.74 5.50 6.57 4.54 4.65 4.54ZM4.06 5.24C5.50 5.24 6.43 5.98 6.43 7.45C6.43 8.92 5.49 9.63 4.05 9.63C3.79 9.63 3.44 9.60 3.09 9.58L3.09 7.01C3.09 6.40 3.15 5.67 3.21 5.32C3.56 5.28 3.89 5.24 4.06 5.24ZM12.24 7.50C10.18 7.50 9.18 9.02 9.18 11.12C9.18 13.23 10.29 14.69 12.40 14.69C13.99 14.69 14.88 13.85 14.88 13.85L14.49 13.20C14.49 13.20 13.59 13.78 12.40 13.78C11.14 13.78 10.54 12.49 10.50 11.23L14.69 11.23L14.92 10.77C14.92 8.81 14.20 7.50 12.24 7.50ZM12.18 8.23C13.17 8.23 13.64 9.02 13.64 10.01C13.64 10.08 13.62 10.29 13.62 10.29L10.51 10.53C10.61 9.37 11.03 8.23 12.18 8.23ZM20.40 14.55C21.52 14.55 22.20 14.62 22.20 14.62L22.30 13.79L21.34 13.69C21.34 13.69 21.20 12.91 21.20 12.21L21.20 10.47C21.20 8.33 20.55 7.50 18.89 7.50C18.05 7.50 17.19 7.62 16.35 7.84L16.51 9.74L17.32 9.70L17.32 9.13L17.42 8.54C17.77 8.37 18.28 8.26 18.75 8.26C19.63 8.26 20.06 8.89 20.06 10.19L20.06 10.65L17.82 11.03C16.56 11.24 15.95 11.89 15.95 12.89C15.95 13.99 16.73 14.69 17.98 14.69C18.89 14.69 19.84 14.15 20.20 13.44ZM20.06 11.37L20.06 12.21C19.92 13.12 19.14 13.79 18.20 13.79C17.54 13.79 17.18 13.38 17.18 12.68C17.18 12.19 17.50 11.84 18.06 11.75ZM26.32 7.50C24.18 7.50 23.10 8.96 23.10 11.10C23.10 13.24 24.16 14.69 26.31 14.69C27.76 14.69 28.67 13.93 28.67 13.93L28.28 13.27C28.28 13.27 27.41 13.78 26.32 13.78C24.92 13.78 24.42 12.50 24.42 11.10C24.42 9.70 24.92 8.30 26.32 8.30C26.73 8.30 27.06 8.39 27.47 8.72C27.52 8.92 27.57 9.10 27.57 9.20L27.57 9.70L28.38 9.74L28.52 7.99C27.68 7.71 27.15 7.50 26.32 7.50ZM33.46 13.38C33.46 13.38 32.86 13.79 32.35 13.79C31.84 13.79 31.60 13.40 31.60 12.70L31.60 8.39L33.49 8.39L33.56 7.63L31.60 7.63L31.60 6.19L31.11 6.13C31.11 6.13 30.58 7.25 30.46 7.39C30.14 7.59 29.81 7.64 29.34 7.80L29.39 8.39L30.46 8.39L30.46 12.36C30.46 13.90 30.87 14.69 32.20 14.69C32.90 14.69 33.40 14.31 33.85 13.96ZM41.69 4.54C40.77 4.54 39.97 4.65 39.07 4.68C38.60 4.65 37.70 4.61 37.70 4.61L37.63 5.36L38.71 5.53C38.74 5.71 38.84 6.36 38.84 6.59L38.84 12.63C38.84 12.87 38.74 13.51 38.71 13.69L37.60 13.92L37.67 14.62C37.67 14.62 39.03 14.55 39.33 14.55C40.17 14.55 41.13 14.63 41.69 14.63C44.72 14.63 46.52 12.60 46.52 9.62C46.52 6.50 44.81 4.54 41.69 4.54ZM41.71 5.38C44.04 5.38 45.14 7.28 45.14 9.62C45.14 11.93 44.04 13.80 41.71 13.80C41.09 13.80 40.57 13.78 40.21 13.75C40.19 13.69 40.11 12.88 40.11 12.21L40.11 7.01C40.11 6.45 40.18 5.71 40.21 5.45C40.56 5.40 41.06 5.38 41.71 5.38ZM57.48 4.61C57.48 4.61 56.41 4.68 55.30 4.68L54.15 4.65L54.07 5.49L55.17 5.57C55.22 5.82 55.30 6.51 55.30 6.73L55.30 12.26L51.63 7.13C51.42 6.82 50.27 4.96 50.27 4.96L49.99 4.66L49.38 4.68C49.10 4.68 47.75 4.61 47.75 4.61L47.68 5.36L48.80 5.53C48.83 5.74 48.93 6.37 48.93 6.59L48.93 12.63C48.93 12.87 48.83 13.51 48.80 13.69L47.70 13.92L47.77 14.62C47.77 14.62 49.00 14.55 49.28 14.55C50.40 14.55 51.00 14.62 51.00 14.62L51.10 13.79L49.97 13.69C49.94 13.50 49.87 12.80 49.87 12.21L49.87 6.76L55.38 14.64L56.22 14.64C56.22 14.64 56.24 10.95 56.24 10.39L56.24 7.15C56.24 6.59 56.39 5.84 56.45 5.57L57.55 5.35ZM58.67 11.86L58.46 14.01C58.46 14.01 59.67 14.76 61.54 14.76C63.39 14.76 64.89 13.86 64.89 12.00C64.89 8.82 60.05 8.99 60.05 6.79C60.05 5.75 60.77 5.24 61.64 5.24C62.27 5.24 62.72 5.29 63.31 5.54C63.39 5.87 63.49 6.20 63.49 6.33L63.49 6.94L64.32 7.03L64.51 4.91C63.62 4.69 62.59 4.47 61.68 4.47C59.95 4.47 58.65 5.38 58.65 7.06C58.65 10.08 63.42 9.87 63.42 12.17C63.42 13.30 62.69 13.92 61.57 13.92C60.89 13.92 60.24 13.73 59.75 13.54C59.68 13.23 59.60 12.78 59.60 12.61L59.60 11.94ZM76.69 12.17L75.87 12.19C75.87 12.19 75.87 12.71 75.84 12.85C75.84 12.99 75.74 13.31 75.64 13.64C75.05 13.82 74.31 13.94 73.74 13.94C71.74 13.94 70.76 12.03 70.76 9.60C70.76 7.18 71.74 5.28 73.75 5.28C74.28 5.28 74.97 5.42 75.52 5.60C75.60 5.88 75.68 6.17 75.68 6.30L75.68 6.96L76.51 7.01L76.65 4.94C75.77 4.72 74.90 4.47 73.75 4.47C70.81 4.47 69.31 6.57 69.31 9.62C69.31 12.67 70.81 14.76 73.75 14.76C74.89 14.76 75.89 14.50 76.78 14.28ZM77.55 4.65L78.61 4.87C78.61 4.87 78.75 5.66 78.75 5.94L78.75 12.63C78.75 12.91 78.64 13.57 78.61 13.69L77.53 13.92L77.60 14.62C77.60 14.62 78.88 14.55 79.16 14.55C80.28 14.55 80.96 14.62 80.96 14.62L81.06 13.79L79.97 13.69C79.95 13.58 79.88 12.82 79.88 12.21L79.88 10.71C79.90 9.34 80.57 8.36 81.68 8.36C82.85 8.36 83.12 9.51 83.12 10.68L83.12 12.63C83.12 12.98 83.05 13.38 82.98 13.69L82.04 13.92L82.11 14.62C82.11 14.62 83.26 14.55 83.54 14.55C84.66 14.55 85.34 14.62 85.34 14.62L85.44 13.79L84.35 13.69C84.35 13.69 84.25 12.91 84.25 12.21L84.25 10.68C84.25 8.75 83.82 7.50 81.89 7.50C80.93 7.50 80.26 8.01 79.88 8.57L79.88 6.36C79.88 5.70 79.94 4.65 79.98 4.21L79.72 3.96L78.90 3.96C78.62 3.96 77.62 3.91 77.62 3.91ZM89.19 7.50C87.14 7.50 86.14 9.02 86.14 11.12C86.14 13.23 87.25 14.69 89.36 14.69C90.94 14.69 91.84 13.85 91.84 13.85L91.45 13.20C91.45 13.20 90.55 13.78 89.36 13.78C88.10 13.78 87.50 12.49 87.46 11.23L91.64 11.23L91.88 10.77C91.88 8.81 91.15 7.50 89.19 7.50ZM89.14 8.23C90.13 8.23 90.59 9.02 90.59 10.01C90.59 10.08 90.58 10.29 90.58 10.29L87.47 10.53C87.57 9.37 87.99 8.23 89.14 8.23ZM96.05 7.50C93.91 7.50 92.83 8.96 92.83 11.10C92.83 13.24 93.90 14.69 96.04 14.69C97.50 14.69 98.41 13.93 98.41 13.93L98.01 13.27C98.01 13.27 97.15 13.78 96.05 13.78C94.65 13.78 94.15 12.50 94.15 11.10C94.15 9.70 94.65 8.30 96.05 8.30C96.46 8.30 96.80 8.39 97.20 8.72C97.26 8.92 97.30 9.10 97.30 9.20L97.30 9.70L98.11 9.74L98.25 7.99C97.41 7.71 96.88 7.50 96.05 7.50ZM99.08 4.65L100.14 4.87C100.14 4.87 100.28 5.66 100.28 5.94L100.28 12.63C100.28 12.91 100.17 13.57 100.14 13.69L99.06 13.92L99.13 14.62C99.13 14.62 100.41 14.55 100.69 14.55C101.81 14.55 102.49 14.62 102.49 14.62L102.59 13.79L101.50 13.69C101.49 13.58 101.42 12.82 101.42 12.21L101.42 6.36C101.42 5.70 101.47 4.65 101.51 4.21L101.25 3.96L100.44 3.96C100.16 3.96 99.15 3.91 99.15 3.91ZM103.88 8.43L101.57 10.84L103.56 12.94L104.27 13.72L103.47 13.87L103.54 14.57L104.97 14.55C106.09 14.55 106.78 14.62 106.78 14.62L106.88 13.79L105.99 13.71C105.53 13.36 104.89 12.91 104.73 12.74L102.82 10.64L103.95 9.42C104.20 9.16 104.87 8.74 105.34 8.48L106.39 8.37L106.34 7.56C106.34 7.56 105.69 7.63 104.57 7.63C104.29 7.63 103.35 7.59 103.35 7.59L103.28 8.32ZM110.00 7.50C107.94 7.50 106.95 9.02 106.95 11.12C106.95 13.23 108.05 14.69 110.17 14.69C111.75 14.69 112.64 13.85 112.64 13.85L112.25 13.20C112.25 13.20 111.36 13.78 110.17 13.78C108.91 13.78 108.30 12.49 108.26 11.23L112.45 11.23L112.69 10.77C112.69 8.81 111.96 7.50 110.00 7.50ZM109.94 8.23C110.94 8.23 111.40 9.02 111.40 10.01C111.40 10.08 111.38 10.29 111.38 10.29L108.28 10.53C108.37 9.37 108.79 8.23 109.94 8.23ZM115.71 7.88L115.44 7.63L114.94 7.63C114.66 7.63 113.65 7.57 113.65 7.57L113.58 8.32L114.65 8.54C114.65 8.54 114.79 9.32 114.79 9.60L114.79 12.63C114.79 12.91 114.65 13.69 114.65 13.69L113.58 13.92L113.65 14.62C113.65 14.62 114.93 14.55 115.21 14.55C116.33 14.55 117.29 14.62 117.29 14.62L117.39 13.79L116.02 13.69C116.02 13.69 115.92 12.91 115.92 12.21L115.92 10.57C115.98 9.25 116.51 8.48 117.80 8.47L117.85 8.47C117.95 8.76 118.05 9.09 118.05 9.17L118.05 9.91L118.86 9.95L119 7.64C119 7.64 118.57 7.50 118.05 7.50C117.04 7.50 116.34 7.91 115.79 8.81Z"></path></g><!----><g data-v-423bf9ae="" id="96ebf671-dce7-4bf7-9f89-5b0482636bf8" transform="matrix(2.8125,0,0,2.8125,0,0)" stroke="none" fill="white"><path d="M9.382 8.675h13.943v13.943L32 31.293V0H.707zM22.618 23.325H8.675V9.382L0 .707V32h31.293z"></path></g><!----></svg>